<?xml version="1.0" encoding="UTF-8"?>
<svg id="Layer_1" data-name="Layer 1" xmlns="http://www.w3.org/2000/svg" viewBox="0 0 200.78 22.04">
  <path d="m128.48,10.95c0-6.2,4.7-10.9,10.8-10.9s10.9,4.8,10.8,11c0,6.1-4.8,10.9-10.9,10.8-6,0-10.7-4.8-10.7-10.9Z" style="fill: #393536; stroke-width: 0px;"/>
  <path d="m91.38,9.45h3.5c.5,0,.8.1.8.7v7.2c0,.4-.2.7-.4.9-4,4.5-12.2,4.7-16.4.4-4.3-4.4-4-12.1.7-16.1,4.2-3.6,10.6-3.5,14.6.3.6.5.7.9,0,1.5s-1.3,1.2-1.9,1.8c-.4.5-.7.5-1.2,0-1-1-2.2-1.6-3.6-1.7-2.8-.3-5.3,1.1-6.3,3.6-1.2,2.7-.5,6.1,1.5,7.8,2,1.7,5.4,2,7.6.6.6-.4,1-2.7.6-3.1-.1-.1-.3-.1-.5-.2h-.8c-.8-.1-2,.4-2.4-.2-.5-.8-.1-2-.2-3.1,0-.5.4-.5.8-.5,1.3.1,2.5.1,3.6.1Z" style="fill: #393536; stroke-width: 0px;"/>
  <path d="m109.57.45c1.1,0,2.2-.1,3.3,0,4,.3,6.8,3,6.8,6.7,0,2.2-.9,4.1-2.7,5.3-.6.4-.6.7-.3,1.2,1.4,2.3,2.7,4.6,4,6.8.4.6.4.9-.4.8h-.1c-1.4,0-3,.4-4.2-.2s-1.5-2.3-2.2-3.5c-.6-1-1.1-2-1.6-3-.3-.5-.6-.8-1.2-.7-.6,0-.9.2-.8.8v5.6c0,.7-.2,1-.9,1-.9-.1-1.9,0-2.9,0-.6,0-.8-.1-.8-.8V1.05c0-.6.2-.8.8-.8,1,.2,2.1.2,3.2.2h0Z" style="fill: #393536; stroke-width: 0px;"/>
  <path d="m159.27,7.35V1.35c0-.7.2-.9.9-.9.9,0,1.8.1,2.6,0s1.1.2,1.1,1.1v10.9c0,.6,0,1.2.1,1.8.3,2,1.7,3.2,3.6,3.2,2.1.1,3.5-1,4-3,.1-.6.2-1.3.2-2V1.55c0-.8.2-1.1,1-1,.9.1,1.8,0,2.7,0,.6,0,.9.1.9.8,0,4.1.1,8.2-.1,12.3-.2,5.8-5.2,9.5-10.7,8.1-3.6-.9-6-4-6.2-8-.1-2.2-.1-4.3-.1-6.4h0Z" style="fill: #393536; stroke-width: 0px;"/>
  <path d="m7.38,21.45H1.08c-.7,0-1-.2-.9-.9v-.1c-.6-4.7,1.6-7.8,5.7-9.8,1-.5,1.9-1.1,2.8-1.8,1.5-1.1,1.8-2.6,1-3.7-1-1.2-3.2-1.3-4.4-.2-.5.5-.9,1-1.1,1.6s-.5.7-1.1.5c-.8-.3-1.6-.5-2.4-.7-.6-.1-.8-.4-.6-1C1.18,1.85,4.38-.35,8.07.05c2.1.2,3.9.8,5.3,2.5,1.9,2.3,1.7,5.7-.3,7.9-1.2,1.3-2.6,2.2-4.1,3.1-1.2.7-2.4,1.3-3.4,2.3-.3.3-.7.6-.6,1,.2.5.7.2,1,.2h7.8c.8,0,1,.2,1,1v2.5c0,.7-.2.9-.9.8-2.2.1-4.3.1-6.5.1Z" style="fill: #398cf9; stroke-width: 0px;"/>
  <path d="m31.28,14.15c-2.8.5-5.1-.3-6.9-2.5-1.7-2.1-2.1-4.5-1.1-7.1C24.48,1.55,27.98-.35,31.48-.05c5.5.6,8.4,5.2,6.8,10.9-1.2,4-3.8,7-7.1,9.4-.7.5-1.5,1-2.2,1.5-.5.3-.9.4-1.2-.2-.6-.8-1.6-1.6-1.6-2.4,0-.9,1.4-1.2,2.1-1.8,1.2-.9,2.4-1.9,3.4-3,.1-.1.3-.2.1-.4-.1,0-.4,0-.5.2Z" style="fill: #398bf9; stroke-width: 0px;"/>
  <path d="m53.07,7.95c3.8-.7,6.6.4,8.2,3.2,2.7,4.5-.2,10-5.6,10.7-6.6.8-10.8-4.3-8.9-10.9,1.2-4.1,3.9-7.1,7.3-9.5q2.6-1.9,4.5.7c.6.5.5.8-.2,1.2-1.5.9-2.8,1.9-4,3.1-.4.4-1,.8-1.3,1.5Z" style="fill: #398bf9; stroke-width: 0px;"/>
  <path d="m186.68,10.85V1.45c0-.8.1-1.1,1-1,2,.1,4,0,6,.1,4.3.2,7.3,3.4,7.1,7.6-.1,2.9-2.1,5.3-4.9,6.2-.9.3-1.9.4-2.8.4q-1.7,0-1.7,1.7v4.2c0,.6-.2.9-.8.9h-3c-.7,0-.8-.2-.8-.9,0-3.3-.1-6.5-.1-9.8Z" style="fill: #393536; stroke-width: 0px;"/>
  <path d="m31.28,14.15c.2-.3.5-.2.9-.4,0,.4-.2.7-.5.8,0-.3-.2-.4-.4-.4Z" style="fill: #a2c8fc; stroke-width: 0px;"/>
  <path d="m145.27,11.35c-.1,2-.9,4.1-3.2,5.3-2,1.1-4.1,1-6-.2-2.4-1.5-3.4-4.9-2.4-7.9,1-2.8,3.4-4.3,6.3-4,3.1.3,5.3,3,5.3,6.8Z" style="fill: #fefefe; stroke-width: 0px;"/>
  <path d="m110.07,7.35v-.5c.2-.7-.6-1.8.5-2,2.1-.4,3.9.3,4.3,1.6s-.1,2.6-1.2,3.2c-1,.6-2.1.4-3.2.4-.5,0-.4-.4-.4-.7,0-.7,0-1.3,0-2Z" style="fill: #fdfdfd; stroke-width: 0px;"/>
  <path d="m34.08,7.15c0,1.7-1.4,3-3.3,3.1-1.9.1-3.5-1.3-3.5-3,0-1.8,1.4-3.2,3.4-3.2,1.9,0,3.4,1.3,3.4,3.1Z" style="fill: #fefefe; stroke-width: 0px;"/>
  <path d="m54.38,17.75c-2,0-3.4-1.3-3.4-3.1,0-1.7,1.5-3,3.4-3s3.4,1.3,3.4,3c0,1.9-1.4,3.1-3.4,3.1Z" style="fill: #fefefe; stroke-width: 0px;"/>
  <path d="m191.27,7.55v-1.1q0-1.8,1.8-1.7c1.6.1,2.6.7,3,1.9.5,1.6-.3,3.1-2,3.5-2.5.7-2.8.4-2.8-2.6Z" style="fill: #fdfdfd; stroke-width: 0px;"/>
</svg>