<svg width="96" height="100" viewBox="0 0 96 100" fill="none" xmlns="http://www.w3.org/2000/svg">
<path d="M74.8 40.397L50.8 65.3847C50 66.2177 49.2 66.6341 48 66.6341C46.8 66.6341 46 66.2177 45.2 65.3847L21.2 40.397C19.6 38.7311 19.6 36.2324 21.2 34.5665C22.8 32.9007 25.2 32.9007 26.8 34.5665L48 56.639L69.2 34.5665C70.8 32.9007 73.2 32.9007 74.8 34.5665C76.4 36.2324 76.4 38.7311 74.8 40.397Z" fill="#343333" fill-opacity="0.96"/>
<mask id="mask0_713_53" style="mask-type:luminance" maskUnits="userSpaceOnUse" x="20" y="33" width="56" height="34">
<path d="M74.8 40.397L50.8 65.3847C50 66.2177 49.2 66.6341 48 66.6341C46.8 66.6341 46 66.2177 45.2 65.3847L21.2 40.397C19.6 38.7311 19.6 36.2324 21.2 34.5665C22.8 32.9007 25.2 32.9007 26.8 34.5665L48 56.639L69.2 34.5665C70.8 32.9007 73.2 32.9007 74.8 34.5665C76.4 36.2324 76.4 38.7311 74.8 40.397Z" fill="white"/>
</mask>
<g mask="url(#mask0_713_53)">
<path d="M96 0H0V99.9511H96V0Z" fill="#FDFDFD"/>
</g>
<path d="M65.5291 25.6688L50.2791 41.5465C49.7708 42.0757 49.2625 42.3404 48.5 42.3404C47.7375 42.3404 47.2291 42.0757 46.7208 41.5465L31.4708 25.6688C30.4541 24.6103 30.4541 23.0226 31.4708 21.964C32.4875 20.9055 34.0125 20.9055 35.0291 21.964L48.5 35.9893L61.9708 21.964C62.9875 20.9055 64.5125 20.9055 65.5291 21.964C66.5458 23.0226 66.5458 24.6103 65.5291 25.6688Z" fill="#343333" fill-opacity="0.96"/>
<mask id="mask1_713_53" style="mask-type:luminance" maskUnits="userSpaceOnUse" x="30" y="21" width="37" height="22">
<path d="M65.5291 25.6688L50.2791 41.5465C49.7708 42.0757 49.2625 42.3404 48.5 42.3404C47.7375 42.3404 47.2291 42.0757 46.7208 41.5465L31.4708 25.6688C30.4541 24.6103 30.4541 23.0226 31.4708 21.964C32.4875 20.9055 34.0125 20.9055 35.0291 21.964L48.5 35.9893L61.9708 21.964C62.9875 20.9055 64.5125 20.9055 65.5291 21.964C66.5458 23.0226 66.5458 24.6103 65.5291 25.6688Z" fill="white"/>
</mask>
<g mask="url(#mask1_713_53)">
<path d="M79 0H18V63.5106H79V0Z" fill="#FDFDFD"/>
</g>
</svg>
