<?xml version="1.0" encoding="UTF-8"?>
<svg id="Layer_1" data-name="Layer 1" xmlns="http://www.w3.org/2000/svg" viewBox="0 0 210.33 586.17">
  <path d="m210.33,328.09c-3.51,1.18-6.94,2.83-10.55,3.46-34.16,5.95-49.19,21.5-54.09,56.12-1.64,11.6-2.33,23.24-2.27,34.95.14,27.79-.25,55.53-3.25,83.22-4.28,39.42-23.41,62.53-61.61,73.95-23.47,7.02-47.53,6.54-71.61,6.22-4.14-.05-6.74-2.08-6.76-6.27-.12-20.19-.13-40.39-.07-60.58.02-5.37,3.55-6.74,8.3-6.77,9.17-.06,18.35.16,27.44-1.71,17.82-3.66,25.27-11.61,26.19-29.5,1.32-25.84,2.34-51.69,3.3-77.55.66-17.72,2.29-35.25,7.5-52.31,6.92-22.65,20.36-40.47,40.12-53.44,5.33-3.49,5.52-5.66.12-9.18-29.38-19.15-41.57-47.79-45.62-81.3-4.07-33.62-2.64-67.48-5.34-101.13-1.6-19.87-10.27-28.58-30.45-30.61-7.55-.76-15.13-1.58-22.7-1.66C3.06,73.95,0,71.91,0,65.85.03,46.25,0,26.66.05,7.07.06,2.72,1.57.15,6.75.08,30.54-.22,54.29-.03,77.47,6.16c40.61,10.83,62.07,39.5,64.28,86.44,1.57,33.41,2.43,66.85,3.68,100.27.31,8.25,2.22,16.26,4.67,24.1,6.85,21.92,22.41,33.59,44.65,37.16,5.58.9,11.31,1.26,15.58,5.67v68.3h0Z" style="fill: #398bf9; stroke-width: 0px;"/>
</svg>