<?xml version="1.0" encoding="utf-8"?>
<!-- Generator: Adobe Illustrator 28.1.0, SVG Export Plug-In . SVG Version: 6.00 Build 0)  -->
<svg version="1.1" id="Layer_1" xmlns="http://www.w3.org/2000/svg" xmlns:xlink="http://www.w3.org/1999/xlink" x="0px" y="0px"
	 viewBox="0 0 70.8 87.7" style="enable-background:new 0 0 70.8 87.7;" xml:space="preserve">
<style type="text/css">
	.st0{fill:#FFFFFF;}
</style>
<circle class="st0" cx="18.4" cy="10" r="8.6"/>
<path class="st0" d="M37.1,64.8c-11.1,1.2-17.9,0.5-21.5-2.4c-4.1-3.3-4.8-10.2-5.8-19.7c-0.3-2.8-0.6-5.8-1-8.9
	c-0.2-1.8-1.9-3.1-3.7-2.9c-1.8,0.2-3.1,1.9-2.9,3.7c0.4,3.1,0.7,6,1,8.8c1.1,10.7,2,19.2,8.2,24.2c3.7,3,9,4.4,16.7,4.4
	c2.9,0,6.1-0.2,9.7-0.6c1.8-0.2,3.1-1.9,2.9-3.7S39,64.6,37.1,64.8z"/>
<path class="st0" d="M69.1,52L53,26.7l3.6-10.3c0.4-1.2-0.2-2.4-1.4-2.8c-1.2-0.4-2.4,0.2-2.8,1.4l-5,14.5c-0.2,0.1-0.4,0.2-0.6,0.3
	c-5.6,3.2-10.5,0.4-18-4.4c-1.5-0.9-3-1.9-4.5-2.8c-1.7-1.6-4.1-2.5-6.6-2.1c-4.2,0.7-7.2,4.6-6.5,8.9l3.8,25.1
	c0.4,2.9,2.4,5.2,5,6.1c0.7,0.4,1.5,0.6,2.5,0.8c0.5,0.1,1.1,0.1,2,0.2c1.4,0.1,3.3,0.2,5.7,0.3c4.1,0.1,9.2,0.2,13.5,0.2
	c0.7,1.4,1.5,4.5,2.3,7.1c1,3.6,2.2,8.1,4.1,13.3c0.8,2.3,3,3.7,5.2,3.7c0.6,0,1.3-0.1,1.9-0.3c2.9-1.1,4.4-4.2,3.3-7.1
	c-1.7-4.7-2.8-8.8-3.8-12.4c-1.1-3.9-1.9-6.9-3.2-9.4c-2.5-4.9-6.3-5.9-8.9-5.9c-4.9,0-10.3-0.1-14.4-0.2l-2.4-15.4
	c2.6,1.5,5.3,2.9,8.1,3.8c2.1,0.6,4.1,0.9,6,0.9c0.8,0,1.5,0,2.2-0.1c0.2,0.7,0.7,1.2,1.4,1.5c0.2,0.1,0.5,0.1,0.7,0.1
	c0.9,0,1.8-0.6,2.1-1.5l0.5-1.3c0.8-0.3,1.5-0.7,2.3-1.1c0.9-0.5,1.6-1.3,1.9-2.2l12.2,19.2c0.4,0.7,1.1,1,1.9,1
	c0.4,0,0.8-0.1,1.2-0.3C69.5,54.4,69.8,53,69.1,52z"/>
</svg>
