<?xml version="1.0" encoding="UTF-8"?>
<svg id="Layer_1" data-name="Layer 1" xmlns="http://www.w3.org/2000/svg" viewBox="0 0 606.16 399.59">
  <path d="m604.93,168.71l-80.17-137.3c-2.26-3.87-7-5.5-11.17-3.85-.22.09-22.29,8.75-45.52,8.75-8.94,0-20.09-5.4-33.02-11.64-17.81-8.6-39.99-19.31-65.8-19.31-23.67,0-43.72,6.76-60.41,16.55-17.74-12.49-37.41-19.78-58.58-21.57-25.71-2.16-48.71,6.62-67.2,13.69-13.4,5.13-24.94,9.62-33.88,8.8-23.01-1.95-44.42-12.45-44.62-12.55-4-1.99-8.86-.76-11.44,2.9L1.65,143.23c-2.72,3.86-2.01,9.17,1.62,12.18l97.19,80.57-.25.25c-7.18,7.19-11.14,16.72-11.14,26.88s3.96,19.71,11.13,26.89c7.18,7.17,16.73,11.13,26.89,11.13,2.27,0,4.51-.23,6.69-.62.05,10.09,3.99,19.57,11.13,26.7,7.18,7.17,16.73,11.13,26.89,11.13,3.26,0,6.45-.45,9.53-1.25.54,8.96,4.18,17.77,11.01,24.6,7.18,7.18,16.72,11.13,26.88,11.13,2.56,0,5.08-.25,7.54-.73,16.8,20.95,38.44,27.51,57.59,27.51,12.43,0,23.8-2.76,32.1-6.1,6.32,2.08,13.21,3.21,20.18,3.21,15.15,0,29.34-5.19,38.87-13.77,4.53,1.86,9.42,2.84,14.47,2.84,10.16,0,19.71-3.95,26.87-11.13,5.47-5.46,9.05-12.28,10.46-19.71,5.79,3.27,12.25,4.94,18.72,4.94,9.73,0,19.48-3.7,26.88-11.11,6.36-6.36,10.18-14.59,10.98-23.43,3.56,1.09,7.33,1.66,11.16,1.66,10.16,0,19.71-3.95,26.88-11.13,7.18-7.18,11.14-16.72,11.14-26.88s-3.96-19.71-11.14-26.89l-15.05-15.05,95.38-66.35c3.89-2.69,5.05-7.92,2.66-11.99Zm-463.75,108.48c-3.76,3.77-8.76,5.83-14.08,5.83s-10.31-2.07-14.08-5.83c-3.76-3.76-5.83-8.76-5.83-14.08s2.08-10.3,5.83-14.08l17.26-17.25c3.77-3.77,8.76-5.83,14.08-5.83s10.32,2.07,14.08,5.83c3.77,3.77,5.83,8.76,5.83,14.08s-2.07,10.31-5.83,14.08l-17.26,17.26Zm51.16,30.78l-6.45,6.46c-3.77,3.76-8.76,5.82-14.08,5.82s-10.32-2.07-14.08-5.82c-3.77-3.77-5.83-8.77-5.83-14.08s2.07-10.32,5.83-14.08l38.81-38.81c3.77-3.76,8.76-5.83,14.08-5.83s10.32,2.07,14.08,5.83c3.76,3.76,5.83,8.76,5.83,14.08s-2.07,10.28-5.81,14.05l-32.36,32.38s-.01.01-.03.01Zm26.9,46.77c-5.31,0-10.31-2.07-14.08-5.82-7.75-7.75-7.75-20.35-.02-28.13l32.36-32.37s.04-.05.06-.07l6.41-6.42c3.76-3.76,8.76-5.82,14.08-5.82s10.31,2.07,14.08,5.83c3.76,3.76,5.83,8.76,5.83,14.08s-2.08,10.31-5.83,14.08l-38.81,38.82c-3.76,3.74-8.76,5.82-14.08,5.82Zm67.92,13.86c1.27,4.3,3.85,8.26,7.96,12.09-14.27,2.39-34.86,1.43-51.46-16.72.84-.7,1.68-1.45,2.47-2.24l38.81-38.81c.48-.48.91-.99,1.35-1.5,13.56,10.67,10.55,16.01,5.92,24.15-3.48,6.11-7.81,13.73-5.05,23.03Zm221.99-93.69c3.75,3.77,5.82,8.76,5.82,14.08s-2.07,10.3-5.82,14.08c-3.77,3.77-8.76,5.82-14.08,5.82s-10.32-2.07-14.08-5.82l-89.96-89.95c-3.53-3.53-9.26-3.53-12.79,0-3.54,3.52-3.54,9.26,0,12.8l81.86,81.86s.03.04.04.05c3.77,3.77,5.84,8.76,5.84,14.08s-2.08,10.32-5.84,14.08c-3.77,3.76-8.76,5.83-14.08,5.83s-10.31-2.08-14.08-5.83l-15.07-15.06s-.03-.04-.04-.04c0-.01-.01-.01-.03-.03l-53.59-53.59c-3.53-3.53-9.26-3.53-12.8,0-3.53,3.52-3.53,9.26,0,12.8l53.66,53.67c3.74,3.77,5.78,8.74,5.78,14.04s-2.08,10.32-5.83,14.08c-3.77,3.77-8.76,5.83-14.08,5.83h-.01c-5.31,0-10.3-2.07-14.08-5.83l-32.91-32.91c-3.53-3.53-9.27-3.53-12.8,0-3.53,3.54-3.53,9.27,0,12.8l30.17,30.17c-6.15,4.17-14.74,6.7-23.73,6.7-5.96,0-11.79-1.08-16.88-3.09-12.78-6.72-14.9-10.93-15.25-12.06-.53-1.79,1.02-4.69,3.44-8.96,7.66-13.47,13.35-29.39-13.05-49.25.74-2.98,1.17-6.07,1.17-9.23,0-10.16-3.95-19.7-11.13-26.88-7.17-7.18-16.72-11.14-26.88-11.14-3.26,0-6.45.45-9.53,1.25-.55-9.3-4.39-17.96-11.03-24.59-7.17-7.17-16.72-11.13-26.88-11.13s-19.71,3.96-26.89,11.13l-2.42,2.42c-1.6-6.8-5.02-13.03-10.08-18.1-7.17-7.18-16.72-11.13-26.89-11.13s-19.7,3.95-26.88,11.13l-4.2,4.2c-.22-.22-.41-.44-.65-.66L21.27,146.79,103.66,29.68c9.13,3.76,25.88,9.66,44,11.19,13.01,1.06,27.05-4.26,41.89-9.93,17.63-6.75,37.58-14.42,59.2-12.56,15.71,1.33,30.45,6.27,44.02,14.61-17.6,14.05-30.22,30.78-38.2,43.43-4.33,6.88-42.06,68.12-32.13,99.05,2.36,7.35,7.22,12.7,14.05,15.49,5.01,2.05,10.12,3.08,15.19,3.08,23.88,0,41.95-22,59.42-43.27,12.79-15.58,25.98-31.63,38.85-35.07l82.28,82.29,8.72,8.71,45.5,45.5h.01l22.71,22.71Zm-15.27-40.87l-48.85-48.86s-.01,0-.02-.01l-85.53-85.53c-1.71-1.7-4.02-2.65-6.4-2.65-.2,0-.41,0-.61.02-21.85,1.46-38.9,22.21-55.38,42.28-14.8,18.02-30.11,36.65-45.43,36.65-2.76,0-5.48-.57-8.35-1.74-1.36-.56-2.75-1.46-3.65-4.26-4.96-15.44,11.87-54.73,30.22-83.86,14.73-23.38,47.22-62.61,99.36-62.61,21.67,0,40.92,9.31,57.93,17.52,14.31,6.9,27.82,13.43,40.9,13.43,18.19,0,35.38-4.47,44.78-7.44l72.22,123.65-91.19,63.42Z" style="fill: #fff; stroke-width: 0px;"/>
</svg>