<?xml version="1.0" encoding="utf-8"?>
<!-- Generator: Adobe Illustrator 28.1.0, SVG Export Plug-In . SVG Version: 6.00 Build 0)  -->
<svg version="1.1" id="Layer_1" xmlns="http://www.w3.org/2000/svg" xmlns:xlink="http://www.w3.org/1999/xlink" x="0px" y="0px"
	 viewBox="0 0 1024 1031.5" style="enable-background:new 0 0 1024 1031.5;" xml:space="preserve">
<style type="text/css">
	.st0{display:none;}
	.st1{display:inline;}
	.st2{fill:#FFFFFF;}
</style>
<g class="st0">
	<polygon class="st1" points="689.7,513.3 967.9,673.9 881.2,824.2 603,663.5 603,985 429,985 429,663.5 151,824.2 64.4,673.9 
		342.7,513.3 64.5,352.7 151,202.5 429,363.1 429,42 603,42 603,363.1 881.2,202.5 967.9,352.7 	"/>
	<g class="st1">
		<path d="M674.7,539.3c34.6,20,69.3,40,103.9,60c50.9,29.4,101.9,58.8,152.8,88.2c7.1,4.1,14.3,8.2,21.4,12.4
			c-3.7-13.7-7.3-27.3-11-41c-24.9,43.1-49.8,86.3-74.7,129.4c-4,6.9-8,13.9-12,20.8c13.7-3.7,27.3-7.3,41-11
			c-34.6-20-69.3-40-103.9-60c-50.9-29.4-101.9-58.8-152.8-88.2c-7.1-4.1-14.3-8.2-21.4-12.4c-19.4-11.2-45,3.1-45,25.8
			c0,40,0,80,0,120c0,58.8,0,117.7,0,176.5c0,8.2,0,16.5,0,24.7c10.1-9.9,20.1-19.9,30.2-29.8c-49.8,0-99.6,0-149.5,0
			c-8,0-16,0-24,0c9.9,10.1,19.9,20.1,29.8,30.2c0-40,0-80,0-120c0-58.8,0-117.7,0-176.5c0-8.2,0-16.5,0-24.7
			c0-22.9-25.3-37.6-45.2-26.1c-34.6,20-69.3,40-103.9,60c-50.9,29.4-101.9,58.8-152.8,88.2c-7.1,4.1-14.3,8.2-21.4,12.4
			c13.7,3.6,27.4,7.1,41.1,10.7c-24.9-43.1-49.8-86.3-74.7-129.4c-4-6.9-8-13.9-12-20.8c-3.6,13.7-7.1,27.4-10.7,41.1
			c34.6-20,69.3-40,103.9-60c50.9-29.4,101.9-58.8,152.8-88.2c7.1-4.1,14.3-8.2,21.4-12.4c19.6-11.3,19.3-40.6-0.2-51.9
			c-34.6-20-69.3-40-103.9-60c-50.9-29.4-101.9-58.8-152.8-88.2c-7.1-4.1-14.3-8.2-21.4-12.4c3.7,13.7,7.3,27.3,11,41
			c24.9-43.1,49.8-86.3,74.7-129.4c4-6.9,8-13.9,12-20.8c-13.7,3.7-27.3,7.3-41,11c34.6,20,69.3,40,103.9,60
			c50.9,29.4,101.9,58.8,152.8,88.2c7.1,4.1,14.3,8.2,21.4,12.4c19.4,11.2,45-3.1,45-25.8c0-40,0-80,0-120c0-58.8,0-117.7,0-176.5
			c0-8.2,0-16.5,0-24.7c-10.1,9.9-20.1,19.9-30.2,29.8c49.8,0,99.6,0,149.5,0c8,0,16,0,24,0c-9.9-10.1-19.9-20.1-29.8-30.2
			c0,40,0,80,0,120c0,58.8,0,117.7,0,176.5c0,8.2,0,16.5,0,24.7c0,22.9,25.3,37.6,45.2,26.1c34.6-20,69.3-40,103.9-60
			c50.9-29.4,101.9-58.8,152.8-88.2c7.1-4.1,14.3-8.2,21.4-12.4c-13.7-3.6-27.4-7.1-41.1-10.7c24.9,43.1,49.8,86.3,74.7,129.4
			c4,6.9,8,13.9,12,20.8c3.6-13.7,7.1-27.4,10.7-41.1c-34.6,20-69.3,40-103.9,60c-50.9,29.4-101.9,58.8-152.8,88.2
			c-7.1,4.1-14.3,8.2-21.4,12.4c-14.2,8.2-18.9,27-10.7,41.1c8.3,14.2,26.9,18.9,41.1,10.7c34.6-20,69.3-40,103.9-60
			c50.9-29.4,101.9-58.8,152.8-88.2c7.1-4.1,14.3-8.2,21.4-12.4c14.2-8.2,18.8-27,10.7-41.1c-24.9-43.1-49.8-86.3-74.7-129.4
			c-4-6.9-8-13.9-12-20.8c-8.2-14.2-27-18.8-41.1-10.7c-34.6,20-69.3,40-103.9,60C711,266,660.1,295.4,609.1,324.8
			c-7.1,4.1-14.3,8.2-21.4,12.4c15.1,8.7,30.1,17.4,45.2,26.1c0-40,0-80,0-120c0-58.8,0-117.7,0-176.5c0-8.2,0-16.5,0-24.7
			c0-16.3-13.4-30.2-29.8-30.2c-49.8,0-99.6,0-149.5,0c-8,0-16,0-24,0c-16.3,0-30.2,13.4-30.2,29.8c0,40,0,80,0,120
			c0,58.8,0,117.7,0,176.5c0,8.2,0,16.5,0,24.7c15-8.6,30-17.2,45-25.8c-34.6-20-69.3-40-103.9-60c-50.9-29.4-101.9-58.8-152.8-88.2
			c-7.1-4.1-14.3-8.2-21.4-12.4c-14.2-8.2-32.8-3.2-41,11c-24.9,43.1-49.8,86.3-74.7,129.4c-4,6.9-8,13.9-12,20.8
			c-8.2,14.2-3.2,32.8,11,41c34.6,20,69.3,40,103.9,60c50.9,29.4,101.9,58.8,152.8,88.2c7.1,4.1,14.3,8.2,21.4,12.4
			c-0.1-17.3-0.1-34.6-0.2-51.9c-34.6,20-69.3,40-103.9,60c-50.9,29.4-101.9,58.8-152.8,88.2c-7.1,4.1-14.3,8.2-21.4,12.4
			c-14.2,8.2-18.8,27-10.7,41.1c24.9,43.1,49.8,86.3,74.7,129.4c4,6.9,8,13.9,12,20.8c8.2,14.2,27,18.8,41.1,10.7
			c34.6-20,69.3-40,103.9-60c50.9-29.4,101.9-58.8,152.8-88.2c7.1-4.1,14.3-8.2,21.4-12.4c-15.1-8.7-30.1-17.4-45.2-26.1
			c0,40,0,80,0,120c0,58.8,0,117.7,0,176.5c0,8.2,0,16.5,0,24.7c0,16.3,13.4,30.2,29.8,30.2c49.8,0,99.6,0,149.5,0c8,0,16,0,24,0
			c16.3,0,30.2-13.4,30.2-29.8c0-40,0-80,0-120c0-58.8,0-117.7,0-176.5c0-8.2,0-16.5,0-24.7c-15,8.6-30,17.2-45,25.8
			c34.6,20,69.3,40,103.9,60c50.9,29.4,101.9,58.8,152.8,88.2c7.1,4.1,14.3,8.2,21.4,12.4c14.2,8.2,32.8,3.2,41-11
			c24.9-43.1,49.8-86.3,74.7-129.4c4-6.9,8-13.9,12-20.8c8.2-14.2,3.2-32.8-11-41c-34.6-20-69.3-40-103.9-60
			C828,558.5,777,529.1,726.1,499.7c-7.1-4.1-14.3-8.2-21.4-12.4c-14.2-8.2-32.8-3.2-41,11C655.5,512.5,660.5,531.1,674.7,539.3z"/>
	</g>
</g>
<g>
	<polygon class="st2" points="978,387 978,639 642,639 642,975 390,975 390,639 54,639 54,387 390,387 390,51 642,51 642,387 	"/>
	<g>
		<path class="st2" d="M948.2,387.1c0,45.7,0,91.3,0,137c0,38.3,0,76.7,0,115c10.1-9.9,20.1-19.9,30.2-29.8c-38.9,0-77.8,0-116.7,0
			c-60.7,0-121.5,0-182.2,0c-12.3,0-24.7,0-37,0c-16.3,0-30.2,13.4-30.2,29.8c0,38.9,0,77.8,0,116.7c0,60.7,0,121.5,0,182.2
			c0,12.3,0,24.7,0,37c10.1-9.9,20.1-19.9,30.2-29.8c-45.7,0-91.3,0-137,0c-38.3,0-76.7,0-115,0c9.9,10.1,19.9,20.1,29.8,30.2
			c0-38.9,0-77.8,0-116.7c0-60.7,0-121.5,0-182.2c0-12.3,0-24.7,0-37c0-16.3-13.4-30.2-29.8-30.2c-38.9,0-77.8,0-116.7,0
			c-60.7,0-121.5,0-182.2,0c-12.3,0-24.7,0-37,0c9.9,10.1,19.9,20.1,29.8,30.2c0-45.7,0-91.3,0-137c0-38.3,0-76.7,0-115
			c-10.1,9.9-20.1,19.9-30.2,29.8c38.9,0,77.8,0,116.7,0c60.7,0,121.5,0,182.2,0c12.3,0,24.7,0,37,0c16.3,0,30.2-13.4,30.2-29.8
			c0-38.9,0-77.8,0-116.7c0-60.7,0-121.5,0-182.2c0-12.3,0-24.7,0-37c-10.1,9.9-20.1,19.9-30.2,29.8c45.7,0,91.3,0,137,0
			c38.3,0,76.7,0,115,0c-9.9-10.1-19.9-20.2-29.8-30.2c0,38.9,0,77.8,0,116.7c0,60.7,0,121.5,0,182.2c0,12.3,0,24.7,0,37
			c0,16.3,13.4,30.2,29.8,30.2c38.9,0,77.8,0,116.7,0c60.7,0,121.5,0,182.2,0c12.3,0,24.7,0,37,0c16.3,0,30.1-13.4,30.2-29.8
			c0.1-16.3-13.4-30.2-29.8-30.2c-38.9,0-77.8,0-116.7,0c-60.7,0-121.5,0-182.2,0c-12.3,0-24.7,0-37,0c9.9,10.1,19.9,20.1,29.8,30.2
			c0-38.9,0-77.8,0-116.7c0-60.7,0-121.5,0-182.2c0-12.3,0-24.7,0-37c0-16.3-13.4-30.2-29.8-30.2c-45.7,0-91.3,0-137,0
			c-38.3,0-76.7,0-115,0c-16.3,0-30.2,13.4-30.2,29.8c0,38.9,0,77.8,0,116.7c0,60.7,0,121.5,0,182.2c0,12.3,0,24.7,0,37
			c10.1-9.9,20.1-19.9,30.2-29.8c-38.9,0-77.8,0-116.7,0c-60.7,0-121.5,0-182.2,0c-12.3,0-24.7,0-37,0c-16.3,0-30.2,13.4-30.2,29.8
			c0,45.7,0,91.3,0,137c0,38.3,0,76.7,0,115c0,16.3,13.4,30.2,29.8,30.2c38.9,0,77.8,0,116.7,0c60.7,0,121.5,0,182.2,0
			c12.3,0,24.7,0,37,0c-9.9-10.1-19.9-20.1-29.8-30.2c0,38.9,0,77.8,0,116.7c0,60.7,0,121.5,0,182.2c0,12.3,0,24.7,0,37
			c0,16.3,13.4,30.2,29.8,30.2c45.7,0,91.3,0,137,0c38.3,0,76.7,0,115,0c16.3,0,30.2-13.4,30.2-29.8c0-38.9,0-77.8,0-116.7
			c0-60.7,0-121.5,0-182.2c0-12.3,0-24.7,0-37c-10.1,9.9-20.1,19.9-30.2,29.8c38.9,0,77.8,0,116.7,0c60.7,0,121.5,0,182.2,0
			c12.3,0,24.7,0,37,0c16.3,0,30.2-13.4,30.2-29.8c0-45.7,0-91.3,0-137c0-38.3,0-76.7,0-115c0-16.3-13.4-30.1-29.8-30.2
			C962.1,357.2,948.2,370.7,948.2,387.1z"/>
	</g>
</g>
<path class="st0" d="M957.1,199.6c-164-232-441.1-60.5-441.1-60.5C189.7-36.4,68.7,211,68.7,211c-104.2,203.4,36.2,392.1,36.2,392.1
	C228.6,806.8,516,950.4,516,950.4c317.1-166.3,421.7-363.5,421.7-363.5C1070.3,380.7,957.1,199.6,957.1,199.6z M865,496.4
	c0,16.8-13.1,30.6-29.6,30.6H658.5l-0.2,0.4L598.5,675c-3.7,9.1-12,15-21.6,16.5c-15.5,3.8-31.6-5.7-36.8-21.9l-81.4-257.5
	l-39.4,97.2c-2.3,5.7-6.3,10.1-11.2,13.2c0,0,0,0.1-0.1,0.2c-4.8,3.3-10.5,5.3-16.6,5.3H197c-16.4,0-30-13.8-30-30.6v-0.3
	c0-16.8,13.5-30.1,30-30.1h173.8l62.5-154.5c5.5-13.5,20.5-20.4,35-16.6c11.1,2,20.9,10.3,24.7,22.3l80.8,255.4l36.8-90.9
	c4.6-11.2,16.2-17.6,28.5-16.7c0.6,0,1.3,0,1.9,0h194.5c16.4,0,29.6,13.4,29.6,30.1L865,496.4L865,496.4z"/>
</svg>
