<?xml version="1.0" encoding="utf-8"?>
<!-- Generator: Adobe Illustrator 28.0.0, SVG Export Plug-In . SVG Version: 6.00 Build 0)  -->
<svg version="1.1" id="Layer_1" xmlns="http://www.w3.org/2000/svg" xmlns:xlink="http://www.w3.org/1999/xlink" x="0px" y="0px"
	 viewBox="0 0 48 26" style="enable-background:new 0 0 48 26;" xml:space="preserve">
<style type="text/css">
	.st0{clip-path:url(#SVGID_00000148634289471949213770000016424427193317596331_);}
	.st1{fill:#FFFFFF;}
</style>
<g>
	<defs>
		<rect id="SVGID_1_" y="-10" width="48" height="48"/>
	</defs>
	<clipPath id="SVGID_00000147927782545068309470000018292723859932776083_">
		<use xlink:href="#SVGID_1_"  style="overflow:visible;"/>
	</clipPath>
	<g style="clip-path:url(#SVGID_00000147927782545068309470000018292723859932776083_);">
		<path class="st1" d="M16,10h-6V4H6v6H0v4h6v6h4v-6h6V10z M36,12c3.3,0,6-2.7,6-6s-2.7-6-6-6c-0.6,0-1.2,0.1-1.8,0.3
			C35.3,2,36,4,36,6c0,2.1-0.7,4.1-1.8,5.7C34.8,11.9,35.4,12,36,12z M26,12c3.3,0,6-2.7,6-6s-2.7-6-6-6s-6,2.7-6,6S22.7,12,26,12z
			 M39.2,16.3c1.7,1.5,2.8,3.3,2.8,5.7v4h6v-4C48,18.9,43.2,17,39.2,16.3z M26,16c-4,0-12,2-12,6v4h24v-4C38,18,30,16,26,16z"/>
	</g>
</g>
</svg>
